<?xml version="1.0" encoding="UTF-8"?>
<svg width="22px" height="22px" viewBox="0 0 22 22" version="1.1" xmlns="http://www.w3.org/2000/svg" xmlns:xlink="http://www.w3.org/1999/xlink">
    <!-- Generator: Sketch 47.1 (45422) - http://www.bohemiancoding.com/sketch -->
    <title>Icon /  Nav / Homepage </title>
    <desc>Created with Sketch.</desc>
    <defs></defs>
    <g id="Icon-图标" stroke="none" stroke-width="1" fill="none" fill-rule="evenodd">
        <g id="Artboard" transform="translate(-77.000000, -312.000000)" fill="#9A9A9A">
            <path d="M96,325 L96,332 C96,332.552285 95.5522847,333 95,333 L81,333 C80.4477153,333 80,332.552285 80,332 L80,325 L78.1366175,325 L78.1366175,325 C77.8604751,325 77.6366175,324.776142 77.6366175,324.5 C77.6366175,324.374904 77.6835101,324.254353 77.7680405,324.162138 L87.2628459,313.804168 L87.2628459,313.804168 C87.6360383,313.397049 88.2686056,313.369546 88.6757246,313.742739 C88.6970813,313.762316 88.7175772,313.782811 88.7371541,313.804168 L88.7371541,313.804168 L98.2319595,324.162138 L98.2319595,324.162138 C98.4185557,324.365697 98.4048043,324.681981 98.2012448,324.868577 C98.1090299,324.953107 97.9884783,325 97.8633825,325 L96,325 Z M86,328 L86,333 L90,333 L90,328 L86,328 Z" id="Icon-/--Nav-/-Homepage-"></path>
        </g>
    </g>
</svg>